<?xml version="1.0" standalone="no"?>
<!DOCTYPE svg PUBLIC "-//W3C//DTD SVG 20010904//EN"
 "http://www.w3.org/TR/2001/REC-SVG-20010904/DTD/svg10.dtd">
<svg version="1.0" xmlns="http://www.w3.org/2000/svg"
 width="200.000000pt" height="89.000000pt" viewBox="0 0 200.000000 89.000000"
 preserveAspectRatio="xMidYMid meet">
<metadata>
Created by potrace 1.16, written by Peter Selinger 2001-2019
</metadata>
<g transform="translate(0.000000,89.000000) scale(0.100000,-0.100000)"
fill="#000000" stroke="none">
<path d="M63 478 c-20 -26 -22 -48 -5 -69 16 -19 19 -20 31 -5 15 17 48 21 70
7 7 -5 25 -4 41 2 20 7 36 8 51 1 16 -7 32 -7 50 0 19 7 35 7 50 0 16 -7 32
-7 50 0 19 7 35 7 51 -1 16 -7 30 -7 46 0 16 7 32 8 51 1 18 -7 34 -7 50 0 15
6 31 7 49 0 19 -7 35 -7 54 1 l27 11 -25 32 -25 32 -304 0 c-230 0 -305 -3
-312 -12z"/>
<path d="M788 453 c-33 -42 -29 -55 11 -40 22 8 36 8 54 0 14 -7 29 -8 38 -2
16 10 63 12 72 2 4 -3 20 -7 37 -7 28 -1 30 1 30 35 0 46 -7 49 -123 49 l-92
-1 -27 -36z"/>
<path d="M108 382 c-20 -4 -34 -43 -24 -67 7 -19 51 -36 71 -29 8 4 15 15 15
25 0 24 46 36 73 20 14 -9 22 -10 30 -2 15 15 50 14 65 -1 9 -9 15 -9 24 0 7
7 21 12 33 12 12 0 26 -5 33 -12 9 -9 15 -9 24 0 16 16 53 15 70 -1 11 -12 16
-12 26 0 7 7 21 13 32 13 10 0 25 -6 32 -13 11 -12 16 -12 26 0 16 16 54 17
70 1 9 -9 15 -9 24 0 15 15 51 15 66 0 9 -9 15 -9 24 0 20 20 56 14 74 -13 20
-30 47 -40 73 -25 45 23 49 80 7 80 -12 0 -26 4 -32 10 -6 6 -21 6 -42 -2 -25
-10 -37 -10 -51 -1 -15 9 -26 9 -50 0 -24 -9 -36 -9 -50 0 -14 9 -26 9 -49 1
-21 -8 -37 -9 -53 -2 -16 7 -32 7 -50 0 -19 -7 -35 -7 -50 0 -16 7 -32 7 -50
0 -19 -7 -35 -7 -50 0 -16 7 -32 7 -50 0 -19 -7 -35 -7 -50 0 -16 7 -32 7 -50
0 -19 -7 -35 -7 -50 0 -16 7 -32 7 -50 0 -19 -6 -35 -7 -51 0 -13 6 -31 8 -40
6z"/>
</g>
</svg>
